# xmcd CD database file
#
# Track frame offsets:
#	150
#	16080
#	32710
#	47292
#	64650
#	79862
#	93395
#
# Disc length: 1433 seconds
#
# Revision: 0
# Processed by: cddbd v1.5PL3 Copyright (c) Steve Scherf et al.
# Submitted via: CDex 1.51
#
DISCID=46059707
DTITLE=八代亜紀 - 八代亜紀（１）
DYEAR=1900
DGENRE=Blues
TTITLE0=雨の慕情
TTITLE1=ともしび
TTITLE2=しのび恋
TTITLE3=おんなの夢
TTITLE4=愛の執念
TTITLE5=もう一度逢いたい
TTITLE6=なみだ恋
EXTD=
EXTT0=
EXTT1=
EXTT2=
EXTT3=
EXTT4=
EXTT5=
EXTT6=
PLAYORDER=
